<?xml version="1.0" encoding="utf-8"?>
<!-- Generator: Adobe Illustrator 17.0.0, SVG Export Plug-In . SVG Version: 6.00 Build 0)  -->
<!DOCTYPE svg PUBLIC "-//W3C//DTD SVG 1.1//EN" "http://www.w3.org/Graphics/SVG/1.1/DTD/svg11.dtd">
<svg version="1.1" id="OBJECTS" xmlns="http://www.w3.org/2000/svg" xmlns:xlink="http://www.w3.org/1999/xlink" x="0px" y="0px"
	 width="325.956px" height="485.161px" viewBox="0 0 325.956 485.161" enable-background="new 0 0 325.956 485.161"
	 xml:space="preserve">
<rect x="0" y="0" fill="#EEEFE9" width="325.957" height="485.161"/>
<g opacity="0.4">
	<defs>
		<rect id="SVGID_7_" x="0" y="0" opacity="0.4" width="325.957" height="485.161"/>
	</defs>
	<clipPath id="SVGID_2_">
		<use xlink:href="#SVGID_7_"  overflow="visible"/>
	</clipPath>
</g>
<g>
	<defs>
		<rect id="SVGID_9_" x="0" y="0" width="325.956" height="485.161"/>
	</defs>
	<clipPath id="SVGID_4_">
		<use xlink:href="#SVGID_9_"  overflow="visible"/>
	</clipPath>
	<polygon clip-path="url(#SVGID_4_)" fill="#9EC7D2" points="337.616,-133.192 -1.384,-133.192 -1.384,63.808 330.616,-13.192 	"/>
	<polygon clip-path="url(#SVGID_4_)" fill="#D1E9EC" points="-7.761,19.926 337.631,99.315 -11.021,26.259 	"/>
	<polygon clip-path="url(#SVGID_4_)" fill="#D1E9EC" points="-10.369,-107.685 328.631,-107.685 328.631,89.315 -3.369,12.315 	"/>
	<polygon clip-path="url(#SVGID_4_)" fill="#BB5773" points="-9.37,634.296 329.63,634.296 329.63,437.296 -2.37,514.296 	"/>
	<polygon clip-path="url(#SVGID_4_)" fill="#E86E8D" points="329.63,634.296 -9.37,634.296 -9.37,437.296 322.63,514.296 	"/>
	<polygon clip-path="url(#SVGID_4_)" fill="#BB5773" points="329.63,426.296 -6.37,512.296 329.63,419.296 	"/>
</g>
</svg>
